PathFileType	4	(X/Y/Z)	/Users/itak/Documents/Research/Walk-IL/dataset/trc/00523_00183.trc
DataRate	CameraRate	NumFrames	NumMarkers	Units	OrigDataRate	OrigDataStartFrame	OrigNumFrames
100.000000	100.000000	4	56	mm	100.000000	256	512
Frame#	Time	RPSI			LPSI			L3			STRN			T10			C7			CLAV			RBAK			LBAK			LSHO			LUPA			LAEL			LAOL			LWTS			LWPS			LFRA			LHPS			LHTS			RSHO			RUPA			RAEL			RAOL			RWTS			RWPS			RFRA			RIFD			RHPS			RBHD			LFHD			RFHD			LBHD			LHIP			RHIP			RASI			LASI			LKNE			LTHI			LANK			LTIP			LTOE			LMT1			LMT5			LHEE			RKNE			RTHI			RANK			RTIP			RTOE			RMT1			RMT5			RHEE			RHTS			LIFD			*53			*54			*55			
		X1	Y1	Z1	X2	Y2	Z2	X3	Y3	Z3	X4	Y4	Z4	X5	Y5	Z5	X6	Y6	Z6	X7	Y7	Z7	X8	Y8	Z8	X9	Y9	Z9	X10	Y10	Z10	X11	Y11	Z11	X12	Y12	Z12	X13	Y13	Z13	X14	Y14	Z14	X15	Y15	Z15	X16	Y16	Z16	X17	Y17	Z17	X18	Y18	Z18	X19	Y19	Z19	X20	Y20	Z20	X21	Y21	Z21	X22	Y22	Z22	X23	Y23	Z23	X24	Y24	Z24	X25	Y25	Z25	X26	Y26	Z26	X27	Y27	Z27	X28	Y28	Z28	X29	Y29	Z29	X30	Y30	Z30	X31	Y31	Z31	X32	Y32	Z32	X33	Y33	Z33	X34	Y34	Z34	X35	Y35	Z35	X36	Y36	Z36	X37	Y37	Z37	X38	Y38	Z38	X39	Y39	Z39	X40	Y40	Z40	X41	Y41	Z41	X42	Y42	Z42	X43	Y43	Z43	X44	Y44	Z44	X45	Y45	Z45	X46	Y46	Z46	X47	Y47	Z47	X48	Y48	Z48	X49	Y49	Z49	X50	Y50	Z50	X51	Y51	Z51	X52	Y52	Z52	X53	Y53	Z53	X54	Y54	Z54	X55	Y55	Z55	X56	Y56	Z56	

257	2.56	-263.2865600585938	941.59375	-169.2444610595703	-190.2982177734375	952.5049438476562	-268.5872802734375	-221.7914428710938	1028.211547851562	-225.3038635253906	-32.13769149780273	1183.9140625	-95.33927154541016	-230.9023284912109	1134.2724609375	-225.3650817871094	-184.7882537841797	1360.38330078125	-182.8854064941406	-60.17313003540039	1280.560791015625	-106.9817123413086	-278.62353515625	1240.718994140625	-147.3041839599609	-161.5421447753906	1310.557495117188	-272.7747192382812	-44.13012313842773	1361.017333984375	-281.6408081054688	-17.71143913269043	1240.809692382812	-348.4717407226562	21.36982345581055	1035.929443359375	-383.5791931152344	-74.71420288085938	1017.405822753906	-362.048828125	99.70350646972656	852.7891235351562	-316.7800598144531	54.13284301757812	816.6577758789062	-390.4361877441406	45.62700653076172	952.6036987304688	-381.1313171386719	80.74579620361328	765.8504638671875	-380.2522888183594	125.5348510742188	778.97021484375	-335.0896606445312	-223.2100677490234	1347.192626953125	-31.43111991882324	-274.0856628417969	1282.066650390625	-2.5183424949646	-337.905029296875	1020.55859375	-1.601322650909424	-348.1646728515625	1013.007690429688	-67.39838409423828	-270.1087341308594	804.1748657226562	21.34892082214355	-358.9700622558594	793.5216064453125	1.634910702705383	-348.5191040039062	967.2296142578125	-0.151072770357132	-295.0086669921875	647.1145629882812	11.65644454956055	-352.8314514160156	721.161376953125	9.786725997924805	-199.5654754638672	1504.189331054688	-82.690673828125	-10.90999221801758	1570.186645507812	-86.30265808105469	-101.6221008300781	1551.807495117188	1.083143353462219	-96.05905151367188	1523.722412109375	-203.2394561767578	-25.66302108764648	889.6009521484375	-320.0928039550781	-236.9576110839844	845.509033203125	-4.663740634918213	-122.7090377807617	901.3739013671875	-8.933462142944336	12.42104530334473	921.7200927734375	-209.7013092041016	-43.92255020141602	469.2146606445312	-291.8802490234375	-17.27277565002441	626.3260498046875	-300.6527404785156	-166.2817230224609	48.44355392456055	-362.4711303710938	-78.37442779541016	321.1065979003906	-317.8796081542969	-18.02743339538574	35.83124160766602	-218.0196380615234	-102.9995956420898	40.94855117797852	-223.7239990234375	-66.56436157226562	38.57199478149414	-320.5840454101562	-236.403076171875	45.66464233398438	-328.7678833007812	-63.38840866088867	498.1401672363281	29.54903030395508	-180.9737396240234	729.3323974609375	24.0522632598877	-98.35932922363281	71.90747833251953	-69.54043579101562	-45.68973541259766	356.8710632324219	21.72571563720703	40.61539077758789	61.44829940795898	70.96128082275391	41.82728576660156	62.30625534057617	-2.495900392532349	-51.55359268188477	57.77225875854492	29.35145568847656	-86.33364868164062	71.18660736083984	-138.8451690673828	-289.8889770507812	712.0757446289062	39.84341812133789	118.9097213745117	695.8370971679688	-322.7261047363281	nan	nan	nan	nan	nan	nan	nan	nan	nan	
258	2.57	-256.2856750488281	940.543212890625	-166.0537719726562	-182.0866546630859	951.3475341796875	-265.2511291503906	-214.4220428466797	1026.95166015625	-222.1596069335938	-25.16462326049805	1182.543579101562	-91.17306518554688	-223.4229431152344	1133.236083984375	-222.2984771728516	-177.4268951416016	1359.18115234375	-179.1764221191406	-53.06358337402344	1279.212524414062	-102.8018951416016	-271.7667846679688	1239.498413085938	-144.5366973876953	-153.3424530029297	1309.432373046875	-269.2165222167969	-35.91493988037109	1359.641845703125	-276.9853820800781	-8.620814323425293	1239.606567382812	-343.8005676269531	31.56832122802734	1034.852661132812	-378.3208618164062	-64.98455047607422	1015.6328125	-357.4026489257812	109.9948425292969	852.5100708007812	-310.0293579101562	65.58057403564453	815.5166015625	-384.5436096191406	55.66727828979492	951.7152709960938	-375.4348449707031	92.07112884521484	764.924560546875	-373.7877502441406	136.4116058349609	778.7840576171875	-328.4638061523438	-216.5104522705078	1346.097534179688	-28.46473693847656	-268.2052307128906	1281.188232421875	0.09041968733072281	-333.0661315917969	1020.191589355469	-1.27709436416626	-342.9878845214844	1012.68017578125	-66.71751403808594	-267.6215515136719	803.2046508789062	22.14765930175781	-355.8914184570312	793.3116455078125	0.960193395614624	-344.0606384277344	966.66748046875	-0.1286999732255936	-292.9760131835938	646.0375366210938	10.85258865356445	-350.1017761230469	720.5296020507812	8.727885246276855	-192.2191772460938	1502.515258789062	-79.34596252441406	-3.678933382034302	1568.817138671875	-81.28022003173828	-95.51174926757812	1550.163330078125	5.753531932830811	-88.53959655761719	1522.59716796875	-198.6194152832031	-17.82840919494629	888.591796875	-315.6091613769531	-230.4751892089844	844.580810546875	-1.202558517456055	-116.5726852416992	900.561279296875	-4.70460033416748	19.59751319885254	920.2776489257812	-205.2159118652344	-40.41595840454102	468.181640625	-288.7339477539062	-10.34836769104004	625.208251953125	-295.5442199707031	-166.3812255859375	48.75170135498047	-362.093017578125	-75.99372100830078	320.4554748535156	-315.9152526855469	-18.05746269226074	35.57515716552734	-217.8023834228516	-102.8321990966797	40.81179428100586	-223.5979461669922	-66.58209991455078	38.61531066894531	-320.3740844726562	-236.476806640625	46.0430793762207	-328.5363159179688	-58.24866485595703	496.7080993652344	33.30692291259766	-175.8268432617188	728.0589599609375	27.69672966003418	-74.30461120605469	65.55809783935547	-54.70928955078125	-35.82323455810547	354.906005859375	29.37401008605957	62.45248031616211	64.86824035644531	87.85304260253906	64.88478088378906	63.86919784545898	14.40849304199219	-28.39871025085449	55.98994064331055	45.26898574829102	-61.66249465942383	63.77794647216797	-123.8792190551758	-287.7898254394531	710.9445190429688	39.93250274658203	130.3043975830078	695.2778930664062	-315.8865356445312	nan	nan	nan	nan	nan	nan	nan	nan	nan	
259	2.58	-249.0049438476562	939.1932373046875	-163.2174224853516	-174.538330078125	950.2596435546875	-261.5153198242188	-206.986572265625	1025.832397460938	-218.6893310546875	-18.83911895751953	1181.203247070312	-86.67516326904297	-215.6129913330078	1131.870727539062	-218.8900299072266	-169.9481658935547	1357.921997070312	-175.5049285888672	-46.38247680664062	1277.916870117188	-98.17478179931641	-264.0782165527344	1238.460815429688	-141.8057556152344	-144.9125366210938	1308.291381835938	-265.777099609375	-27.46859359741211	1358.296875	-272.4009094238281	0.01405192632228136	1238.1728515625	-339.1818542480469	41.13003921508789	1033.456909179688	-372.8816223144531	-55.36513519287109	1014.127685546875	-353.1993713378906	120.2756423950195	851.897705078125	-303.5295715332031	75.88946533203125	814.4198608398438	-377.9978332519531	65.75498962402344	951.0328979492188	-369.8435668945312	102.9139022827148	764.242919921875	-367.3948974609375	147.00341796875	778.3682861328125	-321.539794921875	-209.8950042724609	1345.10302734375	-25.06855773925781	-262.2608337402344	1280.038696289062	2.879404067993164	-328.8208923339844	1019.462646484375	0.3251013457775116	-337.3356018066406	1012.322448730469	-65.90027618408203	-263.8482971191406	801.8624877929688	22.78347015380859	-352.6058959960938	792.615478515625	0.5434885621070862	-339.5140686035156	966.3038330078125	0.4782790541648865	-290.6685485839844	645.2640991210938	10.60491466522217	-347.469970703125	719.6605834960938	7.799766063690186	-185.2433013916016	1501.162231445312	-75.27425384521484	3.179174423217773	1567.326538085938	-76.2861328125	-89.04177093505859	1548.675537109375	10.59356880187988	-80.87396240234375	1521.103393554688	-194.2301940917969	-9.746779441833496	887.078857421875	-311.1410827636719	-224.3603973388672	843.5139770507812	2.10085916519165	-109.9373626708984	899.60693359375	-0.4830216765403748	27.18616104125977	918.8215942382812	-200.3609161376953	-36.59115600585938	467.0523376464844	-285.6706237792969	-4.64334774017334	623.6948852539062	-290.8832092285156	-166.4421539306641	49.22507476806641	-361.8495788574219	-73.61148071289062	319.9002075195312	-313.8739929199219	-17.97232627868652	35.35692977905273	-217.6615600585938	-102.9034729003906	40.72716522216797	-223.3245391845703	-66.56973266601562	38.69331741333008	-320.1858825683594	-236.5137023925781	46.54794311523438	-328.18212890625	-53.65156555175781	494.9690246582031	36.82551956176758	-170.1208801269531	726.883544921875	31.42584037780762	-51.61301422119141	60.7900276184082	-38.89142227172852	-26.1838207244873	353.0138854980469	36.53347778320312	83.15621948242188	68.87461853027344	104.8252105712891	86.77140808105469	65.79216003417969	31.62882614135742	-6.284683227539062	54.92586517333984	61.30137252807617	-37.62290191650391	57.35863876342773	-108.1981582641602	-285.7235717773438	709.5961303710938	39.79613876342773	140.9824066162109	694.649169921875	-309.1864013671875	nan	nan	nan	nan	nan	nan	nan	nan	nan	
260	2.59	-241.0170745849609	937.927490234375	-159.7845306396484	-166.665283203125	948.7482299804688	-257.9317016601562	-199.229736328125	1024.52001953125	-215.6259613037109	-11.96114349365234	1179.579833984375	-82.09098815917969	-208.0684051513672	1130.58056640625	-215.7018585205078	-162.3740844726562	1356.519775390625	-171.7979736328125	-39.21322250366211	1276.528076171875	-93.90590667724609	-257.0181884765625	1237.215209960938	-138.7320251464844	-137.0285339355469	1306.811645507812	-261.8266296386719	-19.19462203979492	1356.7578125	-267.8968811035156	8.560320854187012	1236.590454101562	-334.22509765625	50.64494323730469	1031.977783203125	-367.0299377441406	-45.94871139526367	1012.4326171875	-348.4465942382812	130.1136169433594	851.0183715820312	-296.499267578125	87.18549346923828	813.6263427734375	-371.300537109375	76.01641082763672	949.1031494140625	-363.4847717285156	114.0420761108398	763.0774536132812	-360.1734313964844	157.7763671875	777.738525390625	-314.398193359375	-203.398681640625	1343.593383789062	-21.52407836914062	-255.9463348388672	1278.822509765625	5.839677810668945	-323.2801208496094	1019.020690917969	0.9500113725662231	-331.2459411621094	1011.723388671875	-65.18160247802734	-260.9718627929688	800.4717407226562	24.07111167907715	-349.1987609863281	791.9573974609375	0.6957917809486389	-334.9444580078125	965.40185546875	1.013383507728577	-288.1585083007812	644.0318603515625	10.00543785095215	-344.8714294433594	719.1761474609375	7.719790935516357	-178.16357421875	1499.6650390625	-71.42890167236328	10.42446708679199	1566.392700195312	-71.16206359863281	-82.95773315429688	1546.849609375	15.28996562957764	-73.25130462646484	1519.892333984375	-189.4655151367188	-1.95958149433136	885.5038452148438	-306.8067626953125	-217.9873199462891	842.67724609375	5.821272850036621	-103.3990631103516	898.65869140625	3.727890014648438	34.45787048339844	917.2288208007812	-195.6574096679688	-32.58412170410156	466.0449829101562	-282.6716613769531	1.280312180519104	622.0230102539062	-286.4061889648438	-166.2543487548828	49.86978149414062	-361.6220397949219	-70.93178558349609	319.2231140136719	-311.5200805664062	-17.81513977050781	35.14599609375	-217.6046600341797	-102.8632125854492	40.69221496582031	-223.1635894775391	-66.43008422851562	38.87430572509766	-319.9755554199219	-236.5398406982422	47.0584602355957	-327.78515625	-49.26761245727539	492.740234375	40.20497131347656	-164.7541046142578	725.8504028320312	35.2877311706543	-29.06667137145996	55.98612976074219	-23.69814872741699	-16.77037048339844	351.3430786132812	44.06167221069336	103.3675231933594	73.87269592285156	121.3963317871094	107.9225158691406	68.75200653076172	48.67512130737305	14.97801780700684	54.84778213500977	77.46232604980469	-13.63249588012695	51.93655014038086	-92.99104309082031	-283.0901489257812	708.3239135742188	39.6320915222168	152.2186431884766	694.111572265625	-301.5711669921875	nan	nan	nan	nan	nan	nan	nan	nan	nan	
